<svg xmlns="http://www.w3.org/2000/svg" viewBox="516 199 800 800"><circle cx="754.9" cy="487.3" r="32.2" fill="#30A49D"/><circle cx="873.6" cy="669.7" r="29.7" fill="#60A879"/><circle cx="793.4" cy="551.7" r="29.8" fill="#38A798"/><circle cx="693.0" cy="728.6" r="31.0" fill="#28A29D"/><circle cx="740.8" cy="312.3" r="29.6" fill="#085890"/><circle cx="888.7" cy="319.2" r="27.6" fill="#07466F"/><circle cx="719.3" cy="669.1" r="26.5" fill="#68B49E"/><circle cx="778.2" cy="642.8" r="26.1" fill="#077381"/><circle cx="868.0" cy="472.7" r="25.9" fill="#30A49D"/><circle cx="795.6" cy="255.6" r="26.3" fill="#07466F"/><circle cx="715.2" cy="365.9" r="25.3" fill="#076DA5"/><circle cx="846.9" cy="274.8" r="26.0" fill="#07466F"/><circle cx="819.2" cy="604.0" r="24.6" fill="#4AAB93"/><circle cx="967.0" cy="790.9" r="23.8" fill="#DF8623"/><circle cx="848.7" cy="528.1" r="21.7" fill="#4AAB93"/><circle cx="710.3" cy="455.4" r="21.4" fill="#0B8995"/><circle cx="717.3" cy="781.3" r="22.0" fill="#0B8995"/><circle cx="674.3" cy="797.0" r="21.2" fill="#0B8995"/><circle cx="893.4" cy="726.9" r="21.5" fill="#7BA265"/><circle cx="975.3" cy="837.7" r="23.4" fill="#DF8623"/><circle cx="1014.2" cy="868.5" r="20.6" fill="#D46116"/><circle cx="899.2" cy="371.1" r="20.2" fill="#38A798"/><circle cx="744.6" cy="717.3" r="19.1" fill="#0B8995"/><circle cx="919.6" cy="770.1" r="19.1" fill="#8F9B50"/><circle cx="693.1" cy="412.5" r="19.2" fill="#076DA5"/><circle cx="910.3" cy="453.0" r="18.1" fill="#38A798"/><circle cx="887.6" cy="416.2" r="16.8" fill="#28A29D"/><circle cx="702.4" cy="834.1" r="17.0" fill="#68B49E"/><circle cx="733.3" cy="410.5" r="15.3" fill="#085890"/><circle cx="936.8" cy="732.0" r="15.8" fill="#8F9B50"/><circle cx="788.5" cy="300.8" r="15.1" fill="#07466F"/><circle cx="744.0" cy="540.9" r="14.6" fill="#28A29D"/><circle cx="1055.7" cy="883.7" r="14.6" fill="#D46116"/><circle cx="1022.6" cy="825.3" r="14.0" fill="#D46116"/><circle cx="749.5" cy="267.3" r="13.0" fill="#07466F"/><circle cx="839.4" cy="567.6" r="13.4" fill="#38A798"/><circle cx="760.5" cy="684.9" r="12.8" fill="#68B49E"/><circle cx="738.5" cy="623.6" r="12.4" fill="#68B49E"/><circle cx="931.9" cy="390.0" r="12.1" fill="#077381"/><circle cx="927.1" cy="340.6" r="11.2" fill="#07466F"/><circle cx="771.4" cy="597.7" r="11.4" fill="#4AAB93"/><circle cx="748.5" cy="442.8" r="10.8" fill="#07466F"/><circle cx="1087.4" cy="929.9" r="10.7" fill="#D46116"/><circle cx="888.6" cy="511.3" r="11.5" fill="#4AAB93"/><circle cx="1023.4" cy="914.8" r="11.1" fill="#D46116"/><circle cx="826.3" cy="651.1" r="10.4" fill="#68B49E"/><circle cx="915.6" cy="695.9" r="10.6" fill="#DF8623"/><circle cx="859.8" cy="611.5" r="11.0" fill="#60A879"/><circle cx="829.0" cy="231.7" r="10.6" fill="#07466F"/><circle cx="694.4" cy="320.6" r="10.0" fill="#085890"/><circle cx="703.7" cy="878.4" r="10.0" fill="#30A49D"/><circle cx="846.5" cy="635.1" r="10.4" fill="#68B49E"/><circle cx="833.8" cy="494.9" r="9.8" fill="#0B8995"/><circle cx="859.7" cy="715.4" r="9.8" fill="#60A879"/><circle cx="678.4" cy="377.4" r="9.2" fill="#085890"/><circle cx="739.1" cy="753.2" r="9.6" fill="#38A798"/><circle cx="1090.7" cy="894.6" r="9.6" fill="#D46116"/><circle cx="1058.1" cy="844.0" r="9.7" fill="#D46116"/><circle cx="885.9" cy="764.2" r="9.6" fill="#60A879"/><circle cx="663.4" cy="762.9" r="8.7" fill="#0F6884"/><circle cx="906.6" cy="486.6" r="9.3" fill="#4AAB93"/><circle cx="680.4" cy="858.2" r="8.8" fill="#28A29D"/><circle cx="906.6" cy="281.7" r="9.0" fill="#07466F"/><circle cx="819.2" cy="298.9" r="8.4" fill="#07466F"/><circle cx="1004.7" cy="797.2" r="9.0" fill="#D46116"/><circle cx="720.6" cy="512.9" r="8.6" fill="#28A29D"/><circle cx="926.3" cy="802.3" r="8.5" fill="#8F9B50"/><circle cx="971.8" cy="877.8" r="8.1" fill="#D46116"/><circle cx="962.9" cy="754.1" r="7.8" fill="#DF8623"/><circle cx="1122.3" cy="914.5" r="8.0" fill="#D46116"/><circle cx="831.5" cy="676.0" r="8.3" fill="#4AAB93"/><circle cx="709.3" cy="489.2" r="7.9" fill="#28A29D"/><circle cx="847.8" cy="312.9" r="7.7" fill="#0F6884"/><circle cx="749.7" cy="352.0" r="7.9" fill="#085890"/><circle cx="792.4" cy="508.4" r="7.4" fill="#30A49D"/><circle cx="1091.9" cy="863.5" r="8.1" fill="#D46116"/><circle cx="885.8" cy="259.1" r="7.3" fill="#07466F"/><circle cx="670.1" cy="834.7" r="7.9" fill="#0F6884"/><circle cx="752.2" cy="569.1" r="7.5" fill="#38A798"/><circle cx="817.5" cy="516.1" r="6.7" fill="#38A798"/><circle cx="925.1" cy="824.9" r="7.3" fill="#DF8623"/><circle cx="685.1" cy="686.7" r="7.8" fill="#68B49E"/><circle cx="932.3" cy="417.2" r="7.2" fill="#0B8995"/><circle cx="994.7" cy="899.0" r="7.0" fill="#D46116"/><circle cx="746.3" cy="599.0" r="7.2" fill="#38A798"/><circle cx="923.4" cy="417.1" r="7.6" fill="#68B49E"/><circle cx="716.6" cy="278.4" r="6.9" fill="#085890"/><circle cx="703.9" cy="296.3" r="7.0" fill="#085890"/><circle cx="945.1" cy="822.7" r="6.9" fill="#8F9B50"/><circle cx="706.1" cy="904.5" r="6.7" fill="#0B8995"/><circle cx="924.7" cy="309.7" r="6.4" fill="#07466F"/><circle cx="867.4" cy="436.1" r="6.6" fill="#28A29D"/><circle cx="685.2" cy="347.4" r="6.5" fill="#085890"/><circle cx="942.4" cy="845.6" r="6.7" fill="#DF8623"/><circle cx="1057.0" cy="916.0" r="6.7" fill="#D46116"/><circle cx="1045.7" cy="936.9" r="6.4" fill="#D46116"/><circle cx="863.5" cy="558.7" r="5.5" fill="#4AAB93"/><circle cx="879.1" cy="535.2" r="6.1" fill="#4AAB93"/><circle cx="860.8" cy="238.7" r="5.9" fill="#07466F"/><circle cx="782.6" cy="678.7" r="5.6" fill="#0F6884"/><circle cx="872.1" cy="354.4" r="5.1" fill="#0B8995"/><circle cx="760.2" cy="241.8" r="5.8" fill="#085890"/><circle cx="876.2" cy="630.7" r="5.9" fill="#68B49E"/><circle cx="717.9" cy="632.2" r="5.6" fill="#0B8995"/><circle cx="910.3" cy="802.2" r="6.4" fill="#7BA265"/><circle cx="1122.4" cy="880.7" r="5.5" fill="#D46116"/><circle cx="764.1" cy="527.5" r="4.8" fill="#0B8995"/><circle cx="910.3" cy="405.1" r="5.6" fill="#0B8995"/><circle cx="869.2" cy="510.4" r="5.2" fill="#28A29D"/><circle cx="842.8" cy="698.0" r="5.1" fill="#68B49E"/><circle cx="772.2" cy="322.8" r="4.6" fill="#085890"/><circle cx="936.2" cy="364.1" r="4.7" fill="#0B8995"/><circle cx="723.8" cy="817.4" r="5.1" fill="#28A29D"/><circle cx="865.1" cy="740.7" r="5.2" fill="#68B49E"/><circle cx="743.8" cy="382.7" r="5.0" fill="#085890"/><circle cx="1122.4" cy="946.6" r="4.8" fill="#D46116"/><circle cx="726.6" cy="435.9" r="5.0" fill="#0F6884"/><circle cx="790.7" cy="603.7" r="4.6" fill="#0B8995"/><circle cx="1098.7" cy="962.2" r="4.7" fill="#D46116"/><circle cx="1153.9" cy="897.9" r="4.8" fill="#D46116"/><circle cx="685.0" cy="882.6" r="4.6" fill="#0F6884"/><circle cx="882.3" cy="281.1" r="4.4" fill="#07466F"/><circle cx="1151.1" cy="926.8" r="4.2" fill="#D46116"/><circle cx="684.6" cy="439.7" r="4.8" fill="#28A29D"/><circle cx="1071.5" cy="952.0" r="4.4" fill="#D46116"/><circle cx="876.0" cy="391.4" r="4.4" fill="#0B8995"/><circle cx="715.8" cy="294.8" r="4.6" fill="#28A29D"/><circle cx="724.0" cy="531.5" r="4.9" fill="#0F6884"/><circle cx="1132.8" cy="973.3" r="4.4" fill="#D46116"/><circle cx="813.5" cy="636.3" r="4.0" fill="#38A798"/><circle cx="801.6" cy="224.4" r="3.9" fill="#07466F"/><circle cx="710.9" cy="505.1" r="4.1" fill="#0B8995"/><circle cx="716.8" cy="926.8" r="3.7" fill="#0F6884"/><circle cx="1171.3" cy="965.1" r="3.4" fill="#D46116"/><circle cx="912.4" cy="426.1" r="4.0" fill="#0B8995"/><circle cx="897.6" cy="790.5" r="3.9" fill="#7BA265"/><circle cx="716.8" cy="858.8" r="3.6" fill="#28A29D"/><circle cx="855.9" cy="329.0" r="3.1" fill="#07466F"/><circle cx="1149.1" cy="952.8" r="2.6" fill="#D46116"/><circle cx="1042.3" cy="857.2" r="2.8" fill="#FEAB2C"/><circle cx="992.3" cy="777.3" r="2.7" fill="#FEAB2C"/><circle cx="1175.1" cy="934.9" r="2.7" fill="#DF8623"/></svg>