<?xml version="1.0" encoding="UTF-8"?>
<svg xmlns="http://www.w3.org/2000/svg" viewBox="0 0 702 736" width="702" height="736">
<path d="M0.25 0.25C234.08 0.25 467.92 0.25 701.75 0.25C701.75 245.42 701.75 490.58 701.75 735.75C467.92 735.75 234.08 735.75 0.25 735.75C0.25 490.58 0.25 245.42 0.25 0.25ZM339.08 351.01C339.35 350.63 339.62 350.25 339.88 349.87C340.63 348.59 341.38 347.32 342.12 346.04C342.41 345.63 342.69 345.22 342.98 344.81C344.69 342.23 346.39 339.64 348.1 337.05C348.41 336.7 348.71 336.35 349.01 336C349.44 335.38 349.88 334.77 350.32 334.15C350.57 333.85 350.82 333.54 351.07 333.23C351.36 332.98 351.64 332.74 351.92 332.5C351.28 331.34 350.64 330.18 349.99 329.02C349.66 328.66 349.33 328.3 349 327.93C348.77 327.58 348.54 327.23 348.31 326.87C347.87 326.27 347.43 325.66 346.99 325.06C346.69 324.7 346.4 324.34 346.1 323.99C343.27 319.1 339.72 314.59 336.59 309.88C331.91 302.82 327.55 295.47 323.47 288.04C306 256.17 293.34 218.19 299.2 181.52C300.9 170.9 304.35 160.39 309.45 150.93C313.51 143.37 318.6 136.27 324.78 130.29C363.38 92.97 423.68 107.23 459.5 140.89C459.97 137.72 459.03 134.63 458.26 131.42C456.25 123.06 453.15 114.98 449.14 107.36C444.42 98.38 438.09 89.76 430.29 83.18C400.09 57.68 350.85 58.87 316.71 75.23C304.79 80.95 293.81 88.63 284.19 97.68C276.56 104.85 270.12 113.1 264.33 121.79C224.76 181.2 241.47 257.82 270.87 317.63C276.6 329.29 282.83 340.73 289.86 351.66C299.92 367.31 310.39 383.77 323.5 397.09C324.75 393.36 325.01 389.37 325.83 385.48C326.68 381.45 327.82 377.47 329.1 373.55C331.67 365.66 335.97 358.64 339.08 351.01ZM406.17 360C406.09 360.24 406.02 360.49 405.94 360.73C405.37 361.49 404.8 362.24 404.22 363C404.14 363.26 404.06 363.52 403.97 363.78C403.65 364.22 403.33 364.66 403 365.1C399.4 371.73 395.8 378.37 392.2 385C392.07 385.35 391.93 385.7 391.8 386.04C391.53 386.73 391.25 387.42 390.98 388.11C390.69 388.74 390.41 389.37 390.12 390C390.01 390.34 389.89 390.67 389.77 391.01C389.52 391.73 389.26 392.45 389.01 393.17C388.91 393.4 388.82 393.63 388.73 393.86C388.54 394.25 388.35 394.64 388.16 395.03C388.04 395.4 387.92 395.77 387.79 396.15C387.57 396.73 387.36 397.31 387.14 397.89C382.73 409.95 382.26 423.9 383.81 436.5C384.43 441.59 385.06 447.2 387.5 451.75C399.11 437.83 410.71 423.92 422.32 410C422.51 409.65 422.7 409.31 422.89 408.96C423.22 408.53 423.56 408.09 423.89 407.65C424.28 407.18 424.67 406.7 425.06 406.23C425.7 405.45 426.34 404.66 426.98 403.88C427.26 403.59 427.55 403.29 427.83 403C433.55 395.31 439.27 387.62 445 379.94C445.24 379.79 445.48 379.65 445.72 379.5C446.15 378.65 446.58 377.8 447.01 376.96C447.26 376.8 447.52 376.65 447.77 376.5C448.19 375.66 448.61 374.82 449.03 373.97C449.29 373.82 449.55 373.66 449.81 373.5C450.49 372.33 451.17 371.17 451.85 370C451.93 369.77 452 369.53 452.08 369.3C456.32 365.26 460.19 357.87 463.19 352.68C468.48 343.54 473.83 334.49 478.54 325.03C504.66 272.66 516.62 209.88 493.39 154.19C486.31 137.2 476.75 120.88 464.04 107.46C460.81 104.04 454.93 96.8 450.75 95.5C452.77 98.8 455.29 101.82 457.41 105.1C463.56 114.62 468.78 125.04 472.85 135.63C491.88 185.19 484.67 237.08 459.32 282.79C449.44 300.62 436.99 316.99 424.84 333.31C418.49 341.85 410.93 350.46 406.17 360ZM459.28 161.5C459.62 160.41 459.98 159.78 459.85 158.55C459.61 156.49 457.8 154.46 456.62 152.85C453.29 148.33 449.26 144.15 445.02 140.47C430.6 127.97 412.38 119.69 393.55 116.69C388 115.8 378.67 114.24 373.5 116.2C376.29 117.56 383.53 118.01 387.4 119.18C397.85 122.33 408.19 127.81 416.08 135.43C420.37 139.57 424.27 144.28 426.79 149.72C429.03 154.55 429.4 159.69 433.38 163.5C438.33 165.84 443.29 164.53 448.5 163.92C452.23 163.49 455.97 163.32 459.28 161.5ZM466.05 175.5C457.94 169.79 440.58 168.6 435.19 178.5C434.54 185.52 436.2 192.46 435.72 199.5C435.31 205.46 432.89 211.55 433.52 217.5C436.51 224.04 439.22 222.26 444.23 225.35C445.41 226.08 446.35 227.31 447.5 228.13C453.17 227.09 458.83 226.05 464.5 225.01C470.98 220 470 211.92 469.97 204.5C469.94 198.84 470.28 193.15 469.98 187.5C469.74 183 469.04 178.96 466.05 175.5ZM459.89 246.5C454.97 237.79 440.18 230.79 430.5 233.23C426.01 236.54 425 241.4 422.73 246.25C420.04 252.01 416.79 257.48 413.34 262.81C409.33 269.01 405.18 272.56 406.02 280.5C408.51 283.97 411.01 287.44 413.5 290.91C414.83 291.84 416.17 292.76 417.5 293.69C422.5 294.26 427.5 294.83 432.5 295.4C437.61 293.17 439.89 288.83 442.83 284.31C447.74 276.73 452.19 268.71 456.12 260.58C458.4 255.86 460.41 251.82 459.89 246.5ZM396.5 292.23C392.12 294.39 389.67 298.48 386.77 302.27C382.29 308.12 377.77 313.93 373.32 319.79C370.3 323.76 367.23 327.44 366.5 332.5C367.06 336.46 368.77 338.49 371.38 341.35C371.38 342.96 371.38 344.56 371.38 346.17C375.1 348.67 377.54 351.81 381.5 348.11C385.18 350.5 388.13 351.24 392.5 350.66C396.82 347.96 399.26 343.75 402.1 339.65C405.77 334.36 409.71 329.24 413.58 324.1C417.54 318.84 421.08 315.46 421.02 308.5C417.62 299.06 406.59 291.1 396.5 292.23ZM358.5 353.02C354.45 355.57 352.7 360 350.63 364.18C346.44 372.64 343.07 381.22 340.7 390.35C339.61 394.55 338.77 398.26 339.98 402.5C343.59 407.04 346.76 405.92 350.5 409.23C356.61 409.91 364.81 409.6 369.5 405.16C372.83 399.6 370.9 394.82 372.6 389.16C375.05 380.97 383.03 375.32 383.28 366.5C381.7 362.51 375.73 356.75 372.02 354.5C367.49 353.46 363.2 352.35 358.5 353.02ZM323.5 410.14C323.02 410.33 322.45 410.24 321.99 410.49C320.54 411.28 319.24 413.44 318.15 414.68C315.5 417.69 312.76 420.62 310.14 423.67C301.05 434.26 291.88 444.77 283.38 455.85C256.05 491.47 232.25 527.72 214.7 569.24C210.97 578.05 207.5 587.03 204.57 596.15C202.85 601.52 200.59 606.92 199.83 612.5C209.1 614.83 218.36 617.17 227.63 619.5C229.65 624.03 231.13 628.77 233.24 633.27C239.27 646.15 250.31 664.26 261.5 673.05C262.85 666.72 263.16 660.03 264.31 653.6C267.03 638.4 271.7 623.35 277.59 609.1C289.43 580.5 306.48 554.23 325.07 529.61C329.93 523.18 334.88 516.75 340.05 510.56C344.79 504.89 350.04 499.46 354.38 493.5C351.4 489.05 348.09 484.81 345.26 480.25C332.23 459.3 323.27 435.07 323.5 410.14ZM350.5 415.78C347.08 418.9 343.23 418.48 340.25 422.5C338.45 432.8 343.22 444.17 346.58 453.82C348.12 458.24 349.5 463.19 352.92 466.5C356.84 468.14 360.33 467.7 364.5 467.89C369.75 465.87 375.25 463.77 377.86 458.5C377.82 451.57 373.76 445.16 372.08 438.47C370.59 432.54 371.37 426.04 368.7 420.5C363.91 415.94 356.73 415.8 350.5 415.78ZM382.5 471.98C381.19 471.25 380.09 470.51 378.49 470.5C373.51 470.48 364.08 474.66 360.99 478.5C361.41 482.86 364.28 486.17 366.88 489.67C370.85 495.03 374.93 500.16 379.34 505.18C389.7 516.97 401.48 527.04 413.66 536.88C425.53 546.47 437.95 556.1 446.8 568.71C458.3 585.11 462.94 610.02 446.46 624.97C439.2 631.55 429.04 634.88 420.5 639.44C417.06 637.16 414.69 636.12 410.5 636.28C403.99 639.11 402.01 643.96 404.87 650.5C407.35 653.52 409.64 654.54 413.5 654.93C420.12 653.2 422 650.26 421.99 643.5C428.03 639.34 435.52 636.67 442.23 633.73C446.28 631.95 450.57 629.52 455.02 629.5C458.24 632.53 458.08 636.26 458.05 640.5C458 647.27 457.69 654.45 456.5 661.09C452.91 662.66 450.96 664.04 449 667.5C449 669.5 449 671.5 449 673.5C452.27 677.67 453.97 679 459.5 679.05C461.17 678.08 462.83 677.1 464.5 676.13C466.4 672.78 466.5 670.25 465.73 666.5C464.21 664.83 462.69 663.17 461.17 661.5C462.62 650.86 462.82 634.23 468.65 625.16C476.99 612.16 496.72 610.95 509.3 618.2C520.54 624.68 527.92 637.25 534.52 647.98C537.07 652.12 539.92 656.1 542 660.5C541.11 662.83 540.21 665.17 539.32 667.5C540.05 669.42 540.77 671.35 541.5 673.27C543.95 675.59 546.18 676.35 549.5 676.7C555.58 675.29 557.65 672.59 558.47 666.5C557.41 662.34 555.65 660.35 552.5 657.64C550.26 657.64 548.02 657.64 545.78 657.64C543.22 653.8 541.14 649.65 538.88 645.63C534.71 638.23 530.43 630.81 527.69 622.74C525.64 616.68 524.77 610.62 528.5 605.07C534.13 599.46 542.22 599.6 549.61 600.66C558.1 601.88 566.35 603.9 574.74 605.64C581.71 607.08 588.77 608.4 595.5 610.73C596.5 612.81 597.5 614.89 598.5 616.97C600.5 617.91 602.5 618.84 604.5 619.77C609.53 619.48 612.36 617.67 615.08 613.5C615.08 611.17 615.08 608.83 615.08 606.5C614.02 605.17 612.95 603.83 611.88 602.5C610.09 601.7 608.29 600.9 606.5 600.1C601.82 600.51 599.33 602.15 596.5 605.81C589 604.4 581.72 602.24 574.37 600.21C566.23 597.96 558.03 595.74 550.37 592.12C543.22 588.75 536.27 584.52 534.01 576.5C534.14 565.99 540.59 562.91 548.81 558.32C557.86 553.27 567.12 548.29 576.5 543.87C579.17 544.86 581.83 545.86 584.5 546.85C591.52 545.36 594 541.54 593.71 534.5C591.92 530.33 589.88 528.22 585.5 526.92C577.09 527.25 574.27 531.41 574.15 539.5C570.95 541.51 567.45 542.93 564.02 544.5C555.12 548.58 546.23 552.6 536.5 554.11C529.91 555.14 522.68 554.74 517.5 550.01C512.76 545.69 511.36 538.71 511.47 532.55C511.68 520.53 516.39 506.64 521.5 495.82C527.78 494.06 530.53 494.49 532.99 487.5C533.16 482.35 531.78 479.18 527.5 476.25C523.55 475.22 520.6 475.38 517.02 477.5C514.9 479.65 513.92 481.54 513.3 484.5C513.49 488.23 514.46 490.52 516.66 493.5C514.39 502.82 510.56 512.25 506.42 520.9C503.52 526.95 500.31 533.23 495.4 537.91C485.62 547.24 471.25 549.04 458.5 545.95C436.28 540.55 416.28 524.9 402.59 506.89C397.18 499.77 392.36 492.2 388.26 484.25C386.2 480.24 384.99 475.71 382.5 471.98ZM495.5 564.67C500.97 565.36 506.08 567.61 508.75 572.75C513.92 582.7 506.72 595.05 495.5 595.06C484.45 595.08 477.35 583.3 481.79 573.32C484.25 567.8 489.85 565.28 495.5 564.67Z" fill="none" fill-rule="evenodd" stroke="#fefefe" stroke-width="0.25" stroke-linejoin="round"/>
<path id="np2" d="M358.5 353.02C363.2 352.35 367.49 353.46 372.02 354.5C375.73 356.75 381.7 362.51 383.28 366.5C383.03 375.32 375.05 380.97 372.6 389.16C370.9 394.82 372.83 399.6 369.5 405.16C364.81 409.6 356.61 409.91 350.5 409.23C346.76 405.92 343.59 407.04 339.98 402.5C338.77 398.26 339.61 394.55 340.7 390.35C343.07 381.22 346.44 372.64 350.63 364.18C352.7 360 354.45 355.57 358.5 353.02ZM392.2 385C392.3 385.67 392.4 386.33 392.5 387C392.27 386.68 392.03 386.36 391.8 386.04C391.93 385.7 392.07 385.35 392.2 385ZM390.98 388.11C391.32 388.24 391.66 388.37 392 388.5C391.66 388.37 391.32 388.24 390.98 388.11ZM390.12 390C390.25 390.67 390.37 391.33 390.5 392C390.26 391.67 390.01 391.34 389.77 391.01C389.89 390.67 390.01 390.34 390.12 390ZM389.01 393.17C390.5 394.05 392 394.93 393.5 395.81C395.17 396.08 396.83 396.34 398.5 396.61C403.22 400.18 408.07 402.85 413.5 405.09C417.35 405.47 421.2 405.85 425.06 406.23C424.67 406.7 424.28 407.18 423.89 407.65C423.56 408.09 423.22 408.53 422.89 408.96C422.7 409.31 422.51 409.65 422.32 410C410.71 423.92 399.11 437.83 387.5 451.75C385.06 447.2 384.43 441.59 383.81 436.5C382.26 423.9 382.73 409.95 387.14 397.89C387.36 397.31 387.57 396.73 387.79 396.15C387.92 395.77 388.04 395.4 388.16 395.03C388.35 394.64 388.54 394.25 388.73 393.86C388.82 393.63 388.91 393.4 389.01 393.17ZM427 403.17C426.99 403.41 426.99 403.64 426.98 403.88C426.99 403.64 426.99 403.41 427 403.17ZM323.5 410.14C323.27 435.07 332.23 459.3 345.26 480.25C348.09 484.81 351.4 489.05 354.38 493.5C350.04 499.46 344.79 504.89 340.05 510.56C334.88 516.75 329.93 523.18 325.07 529.61C306.48 554.23 289.43 580.5 277.59 609.1C271.7 623.35 267.03 638.4 264.31 653.6C263.16 660.03 262.85 666.72 261.5 673.05C250.31 664.26 239.27 646.15 233.24 633.27C231.13 628.77 229.65 624.03 227.63 619.5C218.36 617.17 209.1 614.83 199.83 612.5C200.59 606.92 202.85 601.52 204.57 596.15C207.5 587.03 210.97 578.05 214.7 569.24C232.25 527.72 256.05 491.47 283.38 455.85C291.88 444.77 301.05 434.26 310.14 423.67C312.76 420.62 315.5 417.69 318.15 414.68C319.24 413.44 320.54 411.28 321.99 410.49C322.45 410.24 323.02 410.33 323.5 410.14ZM350.5 415.78C356.73 415.8 363.91 415.94 368.7 420.5C371.37 426.04 370.59 432.54 372.08 438.47C373.76 445.16 377.82 451.57 377.86 458.5C375.25 463.77 369.75 465.87 364.5 467.89C360.33 467.7 356.84 468.14 352.92 466.5C349.5 463.19 348.12 458.24 346.58 453.82C343.22 444.17 338.45 432.8 340.25 422.5C343.23 418.48 347.08 418.9 350.5 415.78ZM382.5 471.98C384.99 475.71 386.2 480.24 388.26 484.25C392.36 492.2 397.18 499.77 402.59 506.89C416.28 524.9 436.28 540.55 458.5 545.95C471.25 549.04 485.62 547.24 495.4 537.91C500.31 533.23 503.52 526.95 506.42 520.9C510.56 512.25 514.39 502.82 516.66 493.5C514.46 490.52 513.49 488.23 513.3 484.5C513.92 481.54 514.9 479.65 517.02 477.5C520.6 475.38 523.55 475.22 527.5 476.25C531.78 479.18 533.16 482.35 532.99 487.5C530.53 494.49 527.78 494.06 521.5 495.82C516.39 506.64 511.68 520.53 511.47 532.55C511.36 538.71 512.76 545.69 517.5 550.01C522.68 554.74 529.91 555.14 536.5 554.11C546.23 552.6 555.12 548.58 564.02 544.5C567.45 542.93 570.95 541.51 574.15 539.5C574.27 531.41 577.09 527.25 585.5 526.92C589.88 528.22 591.92 530.33 593.71 534.5C594 541.54 591.52 545.36 584.5 546.85C581.83 545.86 579.17 544.86 576.5 543.87C567.12 548.29 557.86 553.27 548.81 558.32C540.59 562.91 534.14 565.99 534.01 576.5C536.27 584.52 543.22 588.75 550.37 592.12C558.03 595.74 566.23 597.96 574.37 600.21C581.72 602.24 589 604.4 596.5 605.81C599.33 602.15 601.82 600.51 606.5 600.1C608.29 600.9 610.09 601.7 611.88 602.5C612.95 603.83 614.02 605.17 615.08 606.5C615.08 608.83 615.08 611.17 615.08 613.5C612.36 617.67 609.53 619.48 604.5 619.77C602.5 618.84 600.5 617.91 598.5 616.97C597.5 614.89 596.5 612.81 595.5 610.73C588.77 608.4 581.71 607.08 574.74 605.64C566.35 603.9 558.1 601.88 549.61 600.66C542.22 599.6 534.13 599.46 528.5 605.07C524.77 610.62 525.64 616.68 527.69 622.74C530.43 630.81 534.71 638.23 538.88 645.63C541.14 649.65 543.22 653.8 545.78 657.64C548.02 657.64 550.26 657.64 552.5 657.64C555.65 660.35 557.41 662.34 558.47 666.5C557.65 672.59 555.58 675.29 549.5 676.7C546.18 676.35 543.95 675.59 541.5 673.27C540.77 671.35 540.05 669.42 539.32 667.5C540.21 665.17 541.11 662.83 542 660.5C539.92 656.1 537.07 652.12 534.52 647.98C527.92 637.25 520.54 624.68 509.3 618.2C496.72 610.95 476.99 612.16 468.65 625.16C462.82 634.23 462.62 650.86 461.17 661.5C462.69 663.17 464.21 664.83 465.73 666.5C466.5 670.25 466.4 672.78 464.5 676.13C462.83 677.1 461.17 678.08 459.5 679.05C453.97 679 452.27 677.67 449 673.5C449 671.5 449 669.5 449 667.5C450.96 664.04 452.91 662.66 456.5 661.09C457.69 654.45 458 647.27 458.05 640.5C458.08 636.26 458.24 632.53 455.02 629.5C450.57 629.52 446.28 631.95 442.23 633.73C435.52 636.67 428.03 639.34 421.99 643.5C422 650.26 420.12 653.2 413.5 654.93C409.64 654.54 407.35 653.52 404.87 650.5C402.01 643.96 403.99 639.11 410.5 636.28C414.69 636.12 417.06 637.16 420.5 639.44C429.04 634.88 439.2 631.55 446.46 624.97C462.94 610.02 458.3 585.11 446.8 568.71C437.95 556.1 425.53 546.47 413.66 536.88C401.48 527.04 389.7 516.97 379.34 505.18C374.93 500.16 370.85 495.03 366.88 489.67C364.28 486.17 361.41 482.86 360.99 478.5C364.08 474.66 373.51 470.48 378.49 470.5C380.09 470.51 381.19 471.25 382.5 471.98ZM495.5 564.67C489.85 565.28 484.25 567.8 481.79 573.32C477.35 583.3 484.45 595.08 495.5 595.06C506.72 595.05 513.92 582.7 508.75 572.75C506.08 567.61 500.97 565.36 495.5 564.67Z" fill="#df6a12" fill-rule="evenodd" stroke="#df6a12" stroke-width="0.25" stroke-linejoin="round"/>
<path id="np3" d="M346.1 323.99C346.4 324.34 346.69 324.7 346.99 325.06C347.43 325.66 347.87 326.27 348.31 326.87C348.54 327.23 348.77 327.58 349 327.93C349.33 328.3 349.66 328.66 349.99 329.02C350.64 330.18 351.28 331.34 351.92 332.5C351.64 332.74 351.36 332.98 351.07 333.23C350.82 333.54 350.57 333.85 350.32 334.15C349.88 334.77 349.44 335.38 349.01 336C348.71 336.35 348.41 336.7 348.1 337.05C346.39 339.64 344.69 342.23 342.98 344.81C342.69 345.22 342.41 345.63 342.12 346.04C341.38 347.32 340.63 348.59 339.88 349.87C339.62 350.25 339.35 350.63 339.08 351.01C335.97 358.64 331.67 365.66 329.1 373.55C327.82 377.47 326.68 381.45 325.83 385.48C325.01 389.37 324.75 393.36 323.5 397.09C310.39 383.77 299.92 367.31 289.86 351.66C282.83 340.73 276.6 329.29 270.87 317.63C241.47 257.82 224.76 181.2 264.33 121.79C270.12 113.1 276.56 104.85 284.19 97.68C293.81 88.63 304.79 80.95 316.71 75.23C350.85 58.87 400.09 57.68 430.29 83.18C438.09 89.76 444.42 98.38 449.14 107.36C453.15 114.98 456.25 123.06 458.26 131.42C459.03 134.63 459.97 137.72 459.5 140.89C423.68 107.23 363.38 92.97 324.78 130.29C318.6 136.27 313.51 143.37 309.45 150.93C304.35 160.39 300.9 170.9 299.2 181.52C293.34 218.19 306 256.17 323.47 288.04C327.55 295.47 331.91 302.82 336.59 309.88C339.72 314.59 343.27 319.1 346.1 323.99ZM459.28 161.5C455.97 163.32 452.23 163.49 448.5 163.92C443.29 164.53 438.33 165.84 433.38 163.5C429.4 159.69 429.03 154.55 426.79 149.72C424.27 144.28 420.37 139.57 416.08 135.43C408.19 127.81 397.85 122.33 387.4 119.18C383.53 118.01 376.29 117.56 373.5 116.2C378.67 114.24 388 115.8 393.55 116.69C412.38 119.69 430.6 127.97 445.02 140.47C449.26 144.15 453.29 148.33 456.62 152.85C457.8 154.46 459.61 156.49 459.85 158.55C459.98 159.78 459.62 160.41 459.28 161.5ZM406.17 360C406.09 360.24 406.02 360.49 405.94 360.73C406.02 360.49 406.09 360.24 406.17 360ZM404.22 363C404.14 363.26 404.06 363.52 403.97 363.78C404.06 363.52 404.14 363.26 404.22 363ZM403 365.1C403.34 365.23 403.67 365.37 404 365.5C403.67 365.37 403.34 365.23 403 365.1ZM452.08 369.3C452 369.53 451.93 369.77 451.85 370C451.93 369.77 452 369.53 452.08 369.3ZM449.03 373.97C448.68 373.82 448.34 373.66 448 373.5C448.34 373.66 448.68 373.82 449.03 373.97ZM447.01 376.96C446.68 376.8 446.34 376.65 446 376.5C446.34 376.65 446.68 376.8 447.01 376.96ZM445 379.94C444.66 379.79 444.33 379.65 444 379.5C444.33 379.65 444.66 379.79 445 379.94ZM427 403.17C427.28 403.11 427.56 403.06 427.83 403C427.55 403.29 427.26 403.59 426.98 403.88C426.99 403.64 426.99 403.41 427 403.17Z" fill="#085480" fill-rule="evenodd" stroke="#085480" stroke-width="0.25" stroke-linejoin="round"/>
<path id="np4" d="M452.08 369.3C452 369.53 451.93 369.77 451.85 370C451.17 371.17 450.49 372.33 449.81 373.5C449.55 373.66 449.29 373.82 449.03 373.97C448.68 373.82 448.34 373.66 448 373.5C448.34 373.66 448.68 373.82 449.03 373.97C448.61 374.82 448.19 375.66 447.77 376.5C447.52 376.65 447.26 376.8 447.01 376.96C446.68 376.8 446.34 376.65 446 376.5C446.34 376.65 446.68 376.8 447.01 376.96C446.58 377.8 446.15 378.65 445.72 379.5C445.48 379.65 445.24 379.79 445 379.94C444.66 379.79 444.33 379.65 444 379.5C444.33 379.65 444.66 379.79 445 379.94C439.27 387.62 433.55 395.31 427.83 403C427.56 403.06 427.28 403.11 427 403.17C426.99 403.41 426.99 403.64 426.98 403.88C426.34 404.66 425.7 405.45 425.06 406.23C421.2 405.85 417.35 405.47 413.5 405.09C408.07 402.85 403.22 400.18 398.5 396.61C396.83 396.34 395.17 396.08 393.5 395.81C392 394.93 390.5 394.05 389.01 393.17C389.26 392.45 389.52 391.73 389.77 391.01C390.01 391.34 390.26 391.67 390.5 392C390.37 391.33 390.25 390.67 390.12 390C390.41 389.37 390.69 388.74 390.98 388.11C391.32 388.24 391.66 388.37 392 388.5C391.66 388.37 391.32 388.24 390.98 388.11C391.25 387.42 391.53 386.73 391.8 386.04C392.03 386.36 392.27 386.68 392.5 387C392.4 386.33 392.3 385.67 392.2 385C395.8 378.37 399.4 371.73 403 365.1C403.34 365.23 403.67 365.37 404 365.5C403.67 365.37 403.34 365.23 403 365.1C403.33 364.66 403.65 364.22 403.97 363.78C404.06 363.52 404.14 363.26 404.22 363C404.8 362.24 405.37 361.49 405.94 360.73C406.02 360.49 406.09 360.24 406.17 360C410.93 350.46 418.49 341.85 424.84 333.31C436.99 316.99 449.44 300.62 459.32 282.79C484.67 237.08 491.88 185.19 472.85 135.63C468.78 125.04 463.56 114.62 457.41 105.1C455.29 101.82 452.77 98.8 450.75 95.5C454.93 96.8 460.81 104.04 464.04 107.46C476.75 120.88 486.31 137.2 493.39 154.19C516.62 209.88 504.66 272.66 478.54 325.03C473.83 334.49 468.48 343.54 463.19 352.68C460.19 357.87 456.32 365.26 452.08 369.3ZM466.05 175.5C469.04 178.96 469.74 183 469.98 187.5C470.28 193.15 469.94 198.84 469.97 204.5C470 211.92 470.98 220 464.5 225.01C458.83 226.05 453.17 227.09 447.5 228.13C446.35 227.31 445.41 226.08 444.23 225.35C439.22 222.26 436.51 224.04 433.52 217.5C432.89 211.55 435.31 205.46 435.72 199.5C436.2 192.46 434.54 185.52 435.19 178.5C440.58 168.6 457.94 169.79 466.05 175.5ZM459.89 246.5C460.41 251.82 458.4 255.86 456.12 260.58C452.19 268.71 447.74 276.73 442.83 284.31C439.89 288.83 437.61 293.17 432.5 295.4C427.5 294.83 422.5 294.26 417.5 293.69C416.17 292.76 414.83 291.84 413.5 290.91C411.01 287.44 408.51 283.97 406.02 280.5C405.18 272.56 409.33 269.01 413.34 262.81C416.79 257.48 420.04 252.01 422.73 246.25C425 241.4 426.01 236.54 430.5 233.23C440.18 230.79 454.97 237.79 459.89 246.5ZM396.5 292.23C406.59 291.1 417.62 299.06 421.02 308.5C421.08 315.46 417.54 318.84 413.58 324.1C409.71 329.24 405.77 334.36 402.1 339.65C399.26 343.75 396.82 347.96 392.5 350.66C388.13 351.24 385.18 350.5 381.5 348.11C377.54 351.81 375.1 348.67 371.38 346.17C371.38 344.56 371.38 342.96 371.38 341.35C368.77 338.49 367.06 336.46 366.5 332.5C367.23 327.44 370.3 323.76 373.32 319.79C377.77 313.93 382.29 308.12 386.77 302.27C389.67 298.48 392.12 294.39 396.5 292.23ZM346.1 323.99C346.4 324.34 346.69 324.7 346.99 325.06C346.69 324.7 346.4 324.34 346.1 323.99ZM348.31 326.87C348.54 327.23 348.77 327.58 349 327.93C348.77 327.58 348.54 327.23 348.31 326.87ZM349 327.93C349.33 328.3 349.66 328.66 349.99 329.02C349.66 328.66 349.33 328.3 349 327.93ZM351.07 333.23C350.82 333.54 350.57 333.85 350.32 334.15C350.57 333.85 350.82 333.54 351.07 333.23ZM349.01 336C348.71 336.35 348.41 336.7 348.1 337.05C348.41 336.7 348.71 336.35 349.01 336ZM342.98 344.81C342.69 345.22 342.41 345.63 342.12 346.04C342.41 345.63 342.69 345.22 342.98 344.81ZM339.88 349.87C339.62 350.25 339.35 350.63 339.08 351.01C339.35 350.63 339.62 350.25 339.88 349.87ZM388.73 393.86C388.54 394.25 388.35 394.64 388.16 395.03C388.35 394.64 388.54 394.25 388.73 393.86ZM387.79 396.15C387.57 396.73 387.36 397.31 387.14 397.89C387.36 397.31 387.57 396.73 387.79 396.15ZM423.89 407.65C423.56 408.09 423.22 408.53 422.89 408.96C423.22 408.53 423.56 408.09 423.89 407.65ZM422.89 408.96C422.7 409.31 422.51 409.65 422.32 410C422.51 409.65 422.7 409.31 422.89 408.96Z" fill="#2e8a86" fill-rule="evenodd" stroke="#2e8a86" stroke-width="0.25" stroke-linejoin="round"/>
<defs>
<clipPath id="ribbonClip"><use href="#np2"/><use href="#np3"/><use href="#np4"/></clipPath>
<radialGradient id="msPulse">
<stop offset="0" stop-color="#fffbe0" stop-opacity="1"/>
<stop offset="0.4" stop-color="#ffcf33" stop-opacity="0.9"/>
<stop offset="1" stop-color="#ffcf33" stop-opacity="0"/>
</radialGradient>
</defs>
<g clip-path="url(#ribbonClip)">
<g>
<animateMotion dur="3.4s" repeatCount="indefinite" path="M505,573 L462,491 Q420,410 410,375 Q400,340 425,297 Q450,255 464,215 Q478,175 473,143 Q468,112 414,99 Q360,86 311,104 Q262,122 239,186 Q216,250 222,302 Q228,355 258,385 Q288,415 264,450 Q240,485 212,520 L185,556"/>
<circle r="52" fill="url(#msPulse)"/>
<circle r="12" fill="#fffdf0"/>
</g>
</g>
</svg>